<?xml version="1.0" encoding="UTF-8"?>
<!DOCTYPE svg PUBLIC "-//W3C//DTD SVG 1.1//EN" "http://www.w3.org/Graphics/SVG/1.1/DTD/svg11.dtd">
<svg xmlns="http://www.w3.org/2000/svg" version="1.1" width="192px" height="192px" style="shape-rendering:geometricPrecision; text-rendering:geometricPrecision; image-rendering:optimizeQuality; fill-rule:evenodd; clip-rule:evenodd" xmlns:xlink="http://www.w3.org/1999/xlink">
<g><path style="opacity:0.855" fill="#2293b0" d="M 135.5,40.5 C 119.338,41.3315 103.005,41.8315 86.5,42C 85.944,42.3826 85.6107,42.8826 85.5,43.5C 83.7392,44.3127 82.0725,45.3127 80.5,46.5C 68.9877,46.1719 57.6544,46.5052 46.5,47.5C 41.6897,45.8389 40.3564,42.6722 42.5,38C 47.6091,38.1395 52.6091,39.1395 57.5,41C 61.8333,41.6667 66.1667,41.6667 70.5,41C 79.2417,37.4625 88.2417,34.7959 97.5,33C 111.175,31.1084 123.841,33.6084 135.5,40.5 Z"/></g>
<g><path style="opacity:0.967" fill="#2496b2" d="M 135.5,40.5 C 137.153,40.6596 138.486,41.3263 139.5,42.5C 121.674,43.4968 103.674,43.8301 85.5,43.5C 85.6107,42.8826 85.944,42.3826 86.5,42C 103.005,41.8315 119.338,41.3315 135.5,40.5 Z"/></g>
<g><path style="opacity:0.977" fill="#2697b4" d="M 139.5,42.5 C 141.389,43.604 143.055,44.9373 144.5,46.5C 123.34,47.4973 102.007,47.8306 80.5,47.5C 80.5,47.1667 80.5,46.8333 80.5,46.5C 82.0725,45.3127 83.7392,44.3127 85.5,43.5C 103.674,43.8301 121.674,43.4968 139.5,42.5 Z"/></g>
<g><path style="opacity:0.951" fill="#2496b2" d="M 46.5,47.5 C 57.6544,46.5052 68.9877,46.1719 80.5,46.5C 80.5,46.8333 80.5,47.1667 80.5,47.5C 79.8333,47.8333 79.1667,48.1667 78.5,48.5C 68.6522,48.1729 58.9856,48.5062 49.5,49.5C 48.5,48.8333 47.5,48.1667 46.5,47.5 Z"/></g>
<g><path style="opacity:0.874" fill="#299ab6" d="M 144.5,46.5 C 146.833,48.1667 148.833,50.1667 150.5,52.5C 140.75,52.1935 131.084,52.5268 121.5,53.5C 107.647,46.6174 93.9799,46.9508 80.5,54.5C 77.0831,52.7225 75.0831,53.8891 74.5,58C 67.1742,58.4997 59.8409,58.6663 52.5,58.5C 51.5386,56.7354 51.2053,54.7354 51.5,52.5C 59.5069,52.6664 67.5069,52.4997 75.5,52C 76.7101,50.9609 77.7101,49.7942 78.5,48.5C 79.1667,48.1667 79.8333,47.8333 80.5,47.5C 102.007,47.8306 123.34,47.4973 144.5,46.5 Z"/></g>
<g><path style="opacity:0.972" fill="#2697b4" d="M 78.5,48.5 C 77.7101,49.7942 76.7101,50.9609 75.5,52C 67.5069,52.4997 59.5069,52.6664 51.5,52.5C 50.5987,51.7095 49.9321,50.7095 49.5,49.5C 58.9856,48.5062 68.6522,48.1729 78.5,48.5 Z"/></g>
<g><path style="opacity:0.894" fill="#2c9cb8" d="M 150.5,52.5 C 151.167,52.5 151.5,52.8333 151.5,53.5C 141.985,53.1731 132.652,53.5064 123.5,54.5C 122.508,54.6716 121.842,54.3382 121.5,53.5C 131.084,52.5268 140.75,52.1935 150.5,52.5 Z"/></g>
<g><path style="opacity:0.935" fill="#2d9dba" d="M 80.5,54.5 C 77.039,56.4153 75.3723,59.4153 75.5,63.5C 67.8333,63.5 60.1667,63.5 52.5,63.5C 52.5,61.8333 52.5,60.1667 52.5,58.5C 59.8409,58.6663 67.1742,58.4997 74.5,58C 75.0831,53.8891 77.0831,52.7225 80.5,54.5 Z"/></g>
<g><path style="opacity:0.822" fill="#2d9eba" d="M 109.5,59.5 C 101.747,59.799 94.0804,59.4657 86.5,58.5C 92.7483,54.0247 99.7483,52.5247 107.5,54C 109.155,55.4443 109.822,57.2776 109.5,59.5 Z"/></g>
<g><path style="opacity:0.928" fill="#2d9dba" d="M 151.5,53.5 C 152.925,54.922 153.925,56.5887 154.5,58.5C 146.016,59.493 137.349,59.8264 128.5,59.5C 126.5,58.1667 124.833,56.5 123.5,54.5C 132.652,53.5064 141.985,53.1731 151.5,53.5 Z"/></g>
<g><path style="opacity:0.864" fill="#30a0bc" d="M 86.5,58.5 C 94.0804,59.4657 101.747,59.799 109.5,59.5C 108.5,61.1667 107.167,62.5 105.5,63.5C 97.5,62.8333 89.5,62.1667 81.5,61.5C 82.922,60.075 84.5887,59.075 86.5,58.5 Z"/></g>
<g><path style="opacity:0.907" fill="#30a0bc" d="M 154.5,58.5 C 155.488,59.795 156.488,61.1283 157.5,62.5C 148.833,62.5 140.167,62.5 131.5,62.5C 130.167,61.8333 129.167,60.8333 128.5,59.5C 137.349,59.8264 146.016,59.493 154.5,58.5 Z"/></g>
<g><path style="opacity:0.896" fill="#32a1bd" d="M 81.5,61.5 C 89.5,62.1667 97.5,62.8333 105.5,63.5C 105.5,64.1667 105.167,64.5 104.5,64.5C 95.8333,64.5 87.1667,64.5 78.5,64.5C 79.1667,63.1667 80.1667,62.1667 81.5,61.5 Z"/></g>
<g><path style="opacity:0.92" fill="#32a1bd" d="M 131.5,62.5 C 140.167,62.5 148.833,62.5 157.5,62.5C 157.833,63.1667 158.167,63.8333 158.5,64.5C 149.983,64.1739 141.65,64.5073 133.5,65.5C 132.094,65.0269 131.427,64.0269 131.5,62.5 Z"/></g>
<g><path style="opacity:0.96" fill="#30a0bc" d="M 52.5,63.5 C 60.1667,63.5 67.8333,63.5 75.5,63.5C 75.5,64.5 75.5,65.5 75.5,66.5C 68.2395,68.4651 60.5729,69.1318 52.5,68.5C 52.5,66.8333 52.5,65.1667 52.5,63.5 Z"/></g>
<g><path style="opacity:0.96" fill="#34a4bf" d="M 78.5,64.5 C 87.1667,64.5 95.8333,64.5 104.5,64.5C 104.167,66.5 103.833,68.5 103.5,70.5C 94.1667,70.5 84.8333,70.5 75.5,70.5C 75.67,71.8221 75.3366,72.9887 74.5,74C 67.1742,74.4997 59.8409,74.6663 52.5,74.5C 52.5,72.5 52.5,70.5 52.5,68.5C 60.5729,69.1318 68.2395,68.4651 75.5,66.5C 76.5,65.8333 77.5,65.1667 78.5,64.5 Z"/></g>
<g><path style="opacity:0.938" fill="#34a4bf" d="M 158.5,64.5 C 159.363,66.4214 160.029,68.4214 160.5,70.5C 152.082,70.1981 143.748,70.5314 135.5,71.5C 134.833,69.5 134.167,67.5 133.5,65.5C 141.65,64.5073 149.983,64.1739 158.5,64.5 Z"/></g>
<g><path style="opacity:0.944" fill="#38a7c2" d="M 160.5,70.5 C 161.167,72.1667 161.833,73.8333 162.5,75.5C 154.167,75.5 145.833,75.5 137.5,75.5C 136.655,74.3285 135.989,72.9952 135.5,71.5C 143.748,70.5314 152.082,70.1981 160.5,70.5 Z"/></g>
<g><path style="opacity:0.979" fill="#38a7c2" d="M 103.5,70.5 C 103.5,72.1667 103.5,73.8333 103.5,75.5C 93.7734,74.8611 84.4401,75.5278 75.5,77.5C 75.5,78.1667 75.5,78.8333 75.5,79.5C 67.8333,79.5 60.1667,79.5 52.5,79.5C 52.5,77.8333 52.5,76.1667 52.5,74.5C 59.8409,74.6663 67.1742,74.4997 74.5,74C 75.3366,72.9887 75.67,71.8221 75.5,70.5C 84.8333,70.5 94.1667,70.5 103.5,70.5 Z"/></g>
<g><path style="opacity:0.93" fill="#3baac5" d="M 103.5,75.5 C 103.5,77.8333 103.5,80.1667 103.5,82.5C 95.5,82.5 87.5,82.5 79.5,82.5C 78.8724,80.3384 77.539,78.6718 75.5,77.5C 84.4401,75.5278 93.7734,74.8611 103.5,75.5 Z"/></g>
<g><path style="opacity:0.936" fill="#3caac5" d="M 137.5,75.5 C 145.833,75.5 154.167,75.5 162.5,75.5C 162.993,77.8056 163.326,80.139 163.5,82.5C 155.167,82.5 146.833,82.5 138.5,82.5C 138.007,80.1944 137.674,77.861 137.5,75.5 Z"/></g>
<g><path style="opacity:0.96" fill="#3caac5" d="M 52.5,79.5 C 60.1667,79.5 67.8333,79.5 75.5,79.5C 75.5,81.8333 75.5,84.1667 75.5,86.5C 67.8333,86.5 60.1667,86.5 52.5,86.5C 52.5,84.1667 52.5,81.8333 52.5,79.5 Z"/></g>
<g><path style="opacity:0.945" fill="#3fadc8" d="M 79.5,82.5 C 87.5,82.5 95.5,82.5 103.5,82.5C 103.5,83.8333 103.5,85.1667 103.5,86.5C 95.5,86.5 87.5,86.5 79.5,86.5C 79.5,85.1667 79.5,83.8333 79.5,82.5 Z"/></g>
<g><path style="opacity:0.93" fill="#3fadc8" d="M 138.5,82.5 C 146.833,82.5 155.167,82.5 163.5,82.5C 163.833,83.8333 164.167,85.1667 164.5,86.5C 155.833,86.5 147.167,86.5 138.5,86.5C 138.5,85.1667 138.5,83.8333 138.5,82.5 Z"/></g>
<g><path style="opacity:0.96" fill="#3fadc8" d="M 52.5,86.5 C 60.1667,86.5 67.8333,86.5 75.5,86.5C 75.5,87.5 75.5,88.5 75.5,89.5C 67.8333,89.5 60.1667,89.5 52.5,89.5C 52.5,88.5 52.5,87.5 52.5,86.5 Z"/></g>
<g><path style="opacity:0.943" fill="#42b0ca" d="M 79.5,86.5 C 87.5,86.5 95.5,86.5 103.5,86.5C 103.5,88.5 103.5,90.5 103.5,92.5C 95.5,92.5 87.5,92.5 79.5,92.5C 79.5,90.5 79.5,88.5 79.5,86.5 Z"/></g>
<g><path style="opacity:0.937" fill="#42b0ca" d="M 138.5,86.5 C 147.167,86.5 155.833,86.5 164.5,86.5C 164.5,88.5 164.5,90.5 164.5,92.5C 156.167,92.5 147.833,92.5 139.5,92.5C 139.675,90.3792 139.341,88.3792 138.5,86.5 Z"/></g>
<g><path style="opacity:0.96" fill="#42b0ca" d="M 52.5,89.5 C 60.1667,89.5 67.8333,89.5 75.5,89.5C 75.5,91.5 75.5,93.5 75.5,95.5C 67.8333,95.5 60.1667,95.5 52.5,95.5C 52.5,93.5 52.5,91.5 52.5,89.5 Z"/></g>
<g><path style="opacity:0.943" fill="#46b3cd" d="M 79.5,92.5 C 87.5,92.5 95.5,92.5 103.5,92.5C 103.5,94.8333 103.5,97.1667 103.5,99.5C 95.555,98.5632 87.555,98.2299 79.5,98.5C 79.5,96.5 79.5,94.5 79.5,92.5 Z"/></g>
<g><path style="opacity:0.947" fill="#46b3cd" d="M 139.5,92.5 C 147.833,92.5 156.167,92.5 164.5,92.5C 164.5,94.8333 164.5,97.1667 164.5,99.5C 155.887,98.5579 147.221,98.2246 138.5,98.5C 139.15,96.5648 139.483,94.5648 139.5,92.5 Z"/></g>
<g><path style="opacity:0.96" fill="#46b2cd" d="M 52.5,95.5 C 60.1667,95.5 67.8333,95.5 75.5,95.5C 75.5,96.8333 75.5,98.1667 75.5,99.5C 67.8333,99.5 60.1667,99.5 52.5,99.5C 52.5,98.1667 52.5,96.8333 52.5,95.5 Z"/></g>
<g><path style="opacity:0.953" fill="#49b6d0" d="M 79.5,98.5 C 87.555,98.2299 95.555,98.5632 103.5,99.5C 103.5,100.167 103.5,100.833 103.5,101.5C 95.5,101.5 87.5,101.5 79.5,101.5C 79.5,100.5 79.5,99.5 79.5,98.5 Z"/></g>
<g><path style="opacity:0.928" fill="#49b6d0" d="M 138.5,98.5 C 147.221,98.2246 155.887,98.5579 164.5,99.5C 164.672,100.492 164.338,101.158 163.5,101.5C 155.167,101.5 146.833,101.5 138.5,101.5C 138.5,100.5 138.5,99.5 138.5,98.5 Z"/></g>
<g><path style="opacity:0.96" fill="#49b5d0" d="M 52.5,99.5 C 60.1667,99.5 67.8333,99.5 75.5,99.5C 75.5,101.167 75.5,102.833 75.5,104.5C 67.8333,104.5 60.1667,104.5 52.5,104.5C 52.5,102.833 52.5,101.167 52.5,99.5 Z"/></g>
<g><path style="opacity:0.943" fill="#4cb8d2" d="M 79.5,101.5 C 87.5,101.5 95.5,101.5 103.5,101.5C 103.5,103.833 103.5,106.167 103.5,108.5C 95.5,108.5 87.5,108.5 79.5,108.5C 79.5,106.167 79.5,103.833 79.5,101.5 Z"/></g>
<g><path style="opacity:0.939" fill="#4cb8d2" d="M 138.5,101.5 C 146.833,101.5 155.167,101.5 163.5,101.5C 163.802,104.059 163.468,106.393 162.5,108.5C 153.983,108.826 145.65,108.493 137.5,107.5C 137.517,105.435 137.85,103.435 138.5,101.5 Z"/></g>
<g><path style="opacity:0.96" fill="#4cb8d2" d="M 52.5,104.5 C 60.1667,104.5 67.8333,104.5 75.5,104.5C 75.5,106.5 75.5,108.5 75.5,110.5C 67.8333,110.5 60.1667,110.5 52.5,110.5C 52.5,108.5 52.5,106.5 52.5,104.5 Z"/></g>
<g><path style="opacity:0.943" fill="#50bcd5" d="M 79.5,108.5 C 87.5,108.5 95.5,108.5 103.5,108.5C 103.5,109.833 103.5,111.167 103.5,112.5C 95.5,112.5 87.5,112.5 79.5,112.5C 79.5,111.167 79.5,109.833 79.5,108.5 Z"/></g>
<g><path style="opacity:0.933" fill="#50bcd5" d="M 137.5,107.5 C 145.65,108.493 153.983,108.826 162.5,108.5C 162.768,110.099 162.434,111.432 161.5,112.5C 152.833,112.5 144.167,112.5 135.5,112.5C 135.796,110.597 136.463,108.93 137.5,107.5 Z"/></g>
<g><path style="opacity:0.96" fill="#4fbbd4" d="M 52.5,110.5 C 60.1667,110.5 67.8333,110.5 75.5,110.5C 75.5,111.167 75.5,111.833 75.5,112.5C 67.8333,112.5 60.1667,112.5 52.5,112.5C 52.5,111.833 52.5,111.167 52.5,110.5 Z"/></g>
<g><path style="opacity:0.96" fill="#50bcd6" d="M 52.5,112.5 C 60.1667,112.5 67.8333,112.5 75.5,112.5C 75.5,113.167 75.5,113.833 75.5,114.5C 67.8333,114.5 60.1667,114.5 52.5,114.5C 52.5,113.833 52.5,113.167 52.5,112.5 Z"/></g>
<g><path style="opacity:0.943" fill="#53bed8" d="M 79.5,112.5 C 87.5,112.5 95.5,112.5 103.5,112.5C 103.5,114.833 103.5,117.167 103.5,119.5C 95.5,119.5 87.5,119.5 79.5,119.5C 79.5,117.167 79.5,114.833 79.5,112.5 Z"/></g>
<g><path style="opacity:0.933" fill="#53bed8" d="M 135.5,112.5 C 144.167,112.5 152.833,112.5 161.5,112.5C 161.416,115.327 160.75,117.994 159.5,120.5C 149.916,119.527 140.25,119.194 130.5,119.5C 131.934,116.953 133.6,114.619 135.5,112.5 Z"/></g>
<g><path style="opacity:0.96" fill="#53bed8" d="M 52.5,114.5 C 60.1667,114.5 67.8333,114.5 75.5,114.5C 75.5,116.833 75.5,119.167 75.5,121.5C 67.8333,121.5 60.1667,121.5 52.5,121.5C 52.5,119.167 52.5,116.833 52.5,114.5 Z"/></g>
<g><path style="opacity:0.943" fill="#56c1db" d="M 79.5,119.5 C 87.5,119.5 95.5,119.5 103.5,119.5C 103.5,120.5 103.5,121.5 103.5,122.5C 95.5,122.5 87.5,122.5 79.5,122.5C 79.5,121.5 79.5,120.5 79.5,119.5 Z"/></g>
<g><path style="opacity:0.963" fill="#56c1db" d="M 130.5,119.5 C 140.25,119.194 149.916,119.527 159.5,120.5C 159.167,121.167 158.833,121.833 158.5,122.5C 148.319,122.827 138.319,122.494 128.5,121.5C 128.833,120.5 129.5,119.833 130.5,119.5 Z"/></g>
<g><path style="opacity:0.933" fill="#5ac5de" d="M 128.5,121.5 C 138.319,122.494 148.319,122.827 158.5,122.5C 156.912,126.41 154.579,129.743 151.5,132.5C 127.339,131.502 103.006,131.169 78.5,131.5C 79.299,128.57 79.6323,125.57 79.5,122.5C 87.5,122.5 95.5,122.5 103.5,122.5C 103.5,123.833 103.5,125.167 103.5,126.5C 112.282,126.871 120.616,125.204 128.5,121.5 Z"/></g>
<g><path style="opacity:0.961" fill="#56c1db" d="M 52.5,121.5 C 60.1667,121.5 67.8333,121.5 75.5,121.5C 75.5,122.167 75.5,122.833 75.5,123.5C 67.8333,123.5 60.1667,123.5 52.5,123.5C 52.5,122.833 52.5,122.167 52.5,121.5 Z"/></g>
<g><path style="opacity:0.93" fill="#5ac4dd" d="M 52.5,123.5 C 60.1667,123.5 67.8333,123.5 75.5,123.5C 75.9629,126.482 76.2962,129.482 76.5,132.5C 68.1667,132.5 59.8333,132.5 51.5,132.5C 51.7038,129.482 52.0371,126.482 52.5,123.5 Z"/></g>
<g><path style="opacity:0.967" fill="#60c9e2" d="M 78.5,131.5 C 103.006,131.169 127.339,131.502 151.5,132.5C 148.789,136.212 145.456,139.212 141.5,141.5C 108.173,140.685 75.1727,140.685 42.5,141.5C 44.5901,139.61 46.9235,137.943 49.5,136.5C 50.7051,135.423 51.3718,134.09 51.5,132.5C 59.8333,132.5 68.1667,132.5 76.5,132.5C 76.3691,133.376 76.7025,134.043 77.5,134.5C 78.3857,133.675 78.719,132.675 78.5,131.5 Z"/></g>
<g><path style="opacity:0.975" fill="#64cde5" d="M 141.5,141.5 C 139.147,143.343 136.48,144.677 133.5,145.5C 103.001,144.771 72.3346,144.771 41.5,145.5C 40.5573,143.999 40.8906,142.665 42.5,141.5C 75.1727,140.685 108.173,140.685 141.5,141.5 Z"/></g>
<g><path style="opacity:0.568" fill="#66cfe7" d="M 133.5,145.5 C 131.518,145.995 129.518,146.495 127.5,147C 100.169,147.881 72.8352,148.215 45.5,148C 43.6803,147.8 42.347,146.966 41.5,145.5C 72.3346,144.771 103.001,144.771 133.5,145.5 Z"/></g>
</svg>
